<?xml version="1.0" encoding="utf-8"?><svg xmlns="http://www.w3.org/2000/svg" xmlns:xlink="http://www.w3.org/1999/xlink"><symbol viewBox="0 0 30 30" id="adv-icon1" xmlns="http://www.w3.org/2000/svg"><path d="M13.4 21.4a1.6 1.6 0 113.2 0 1.6 1.6 0 01-3.2 0zm-.8-11.2c0-.764.296-1.288.712-1.635C13.747 8.202 14.357 8 15 8s1.253.202 1.688.565c.416.347.712.87.712 1.635 0 .66-.163 1.102-.366 1.406a2.01 2.01 0 01-.792.679 3.135 3.135 0 01-1.233.315h-.012H15h-.003a.8.8 0 00-.797.8v3.2h1.6v-2.492c.33-.066.74-.184 1.158-.392a3.607 3.607 0 001.408-1.222c.397-.596.634-1.354.634-2.294 0-1.236-.504-2.211-1.288-2.864C16.947 6.698 15.957 6.4 15 6.4c-.957 0-1.947.298-2.712.936C11.504 7.989 11 8.964 11 10.2h1.6z"/><path fill-rule="evenodd" clip-rule="evenodd" d="M29.4 15c0 7.953-6.447 14.4-14.4 14.4S.6 22.953.6 15 7.047.6 15 .6 29.4 7.047 29.4 15zm-1.6 0c0 7.07-5.73 12.8-12.8 12.8S2.2 22.07 2.2 15 7.93 2.2 15 2.2 27.8 7.93 27.8 15z"/></symbol><symbol viewBox="0 0 24 30" id="adv-icon2" xmlns="http://www.w3.org/2000/svg"><path d="M11.2 23.2v-6.4h1.6v6.4h-1.6z"/><path fill-rule="evenodd" clip-rule="evenodd" d="M4.8 10.4V7.467C4.8 3.374 7.993 0 12 0s7.2 3.374 7.2 7.467V10.4h.8a3.2 3.2 0 013.2 3.2v12.8a3.2 3.2 0 01-3.2 3.2H4a3.2 3.2 0 01-3.2-3.2V13.6A3.2 3.2 0 014 10.4h.8zm1.6-2.933C6.4 4.196 8.938 1.6 12 1.6s5.6 2.595 5.6 5.867V10.4H6.4V7.467zM21.6 26.4V13.6A1.6 1.6 0 0020 12H4a1.6 1.6 0 00-1.6 1.6v12.8A1.6 1.6 0 004 28h16a1.6 1.6 0 001.6-1.6z"/></symbol><symbol viewBox="0 0 32 32" id="adv-icon3" xmlns="http://www.w3.org/2000/svg"><path fill-rule="evenodd" clip-rule="evenodd" d="M15.013 4.515c-.085.257-.162.499-.234.725-.705 2.213-.966 3.032-3.579 3.56L8 9.6v14.063c0 1.22.693 2.333 1.827 2.782 2.356.93 6.665 2.355 10.973 2.355 3.451 0 5.972-.93 7.562-1.788 1.256-.677 1.402-2.26.545-3.402a1.912 1.912 0 01.061-2.372l.77-.924a3.174 3.174 0 00-.677-4.673l-.115-.077a1.985 1.985 0 01-.487-2.843c1.142-1.522-.344-3.755-2.228-3.497C23.488 9.599 20.8 9.568 20.8 8c0-1.248.243-2.738.54-4.093C21.766 1.96 20.342 0 18.35 0a2.92 2.92 0 00-2.852 2.296l-.485 2.22zm13.16 12.457l-.114-.077a3.585 3.585 0 01-.88-5.134c.088-.117.136-.31-.042-.586-.186-.286-.462-.397-.69-.366-1.403.192-2.95.307-4.205.113-.62-.096-1.335-.29-1.929-.73A2.67 2.67 0 0119.2 8c0-1.42.272-3.044.577-4.436.232-1.058-.566-1.964-1.427-1.964a1.32 1.32 0 00-1.289 1.037l-.503 2.3-.025.078c-.073.22-.145.445-.215.666-.13.407-.255.801-.374 1.131-.193.536-.433 1.1-.809 1.612-.827 1.126-2.023 1.618-3.581 1.937l-1.954.488v12.814c0 .624.345 1.108.816 1.294 2.293.906 6.378 2.243 10.384 2.243 3.152 0 5.413-.847 6.802-1.596a.42.42 0 00.24-.339c.024-.175-.02-.437-.215-.695a3.512 3.512 0 01.112-4.356l.77-.925a1.574 1.574 0 00-.335-2.317zM2.4 27.2V9.6H4v17.6H2.4z"/></symbol><symbol viewBox="0 0 30 28" id="adv-icon4" xmlns="http://www.w3.org/2000/svg"><path fill-rule="evenodd" clip-rule="evenodd" d="M21.605 18.871l2.391 7.557c.312.984-.87 1.775-1.718 1.15l-6.12-4.52c-.615-.494-1.701-.494-2.317 0l-6.119 4.52c-.848.625-2.03-.166-1.718-1.15l2.391-7.557c.199-.669-.188-1.655-.789-2.041l-6.564-4.78c-.848-.617-.395-1.92.668-1.92h7.82c.741 0 1.513-.637 1.717-1.324l2.818-7.502c.361-.963 1.785-.931 2.1.047l2.422 7.525c.204.686.951 1.255 1.692 1.255h8.01c1.063 0 1.516 1.302.668 1.92l-6.564 4.778c-.601.386-.988 1.372-.79 2.041zm-.123-3.357l5.196-3.782H20.28c-1.443 0-2.807-1.025-3.22-2.38l-1.988-6.176-2.31 6.15c-.221.69-.677 1.261-1.18 1.657-.519.41-1.236.749-2.05.749h-6.21l5.196 3.782c.634.425 1.047 1.067 1.274 1.651.23.594.367 1.385.137 2.16l-.004.015-1.908 6.03 4.853-3.583c.646-.505 1.436-.699 2.13-.699s1.484.194 2.13.7l4.853 3.583-1.908-6.031-.005-.014c-.23-.776-.093-1.567.138-2.16.227-.585.64-1.227 1.274-1.652z"/></symbol><symbol viewBox="0 0 29 31" id="adv-icon5" xmlns="http://www.w3.org/2000/svg"><path fill-rule="evenodd" clip-rule="evenodd" d="M28.366 11.766l-3.2 3.2-1.132-1.132 3.2-3.2 1.132 1.132zm-6.4 6.4l-12.8 12.8-1.132-1.132 12.8-12.8 1.132 1.132z"/><path d="M21.71 9.526c-.166-1.839-1.496-3.176-3.325-3.343 1.829-.167 3.159-1.504 3.325-3.342.166 1.838 1.496 3.175 3.324 3.342-1.828.167-3.158 1.504-3.324 3.343zm-7.314 5.514c-.166-1.838-1.496-3.175-3.324-3.342 1.828-.167 3.158-1.504 3.324-3.343.166 1.839 1.496 3.176 3.325 3.343-1.829.167-3.325 1.504-3.325 3.342zm-2.493-8.355c-.166-1.839-1.496-3.176-3.324-3.343 1.828-.167 3.158-1.504 3.324-3.342.166 1.838 1.496 3.175 3.324 3.342-1.828.167-3.324 1.504-3.324 3.343zm-7.979 3.342C3.758 8.189 2.428 6.852.6 6.685c1.828-.167 3.158-1.504 3.324-3.343.167 1.839 1.496 3.176 3.325 3.343-1.829.167-3.158 1.504-3.325 3.342z"/></symbol><symbol viewBox="0 0 32 22" id="adv-icon6" xmlns="http://www.w3.org/2000/svg"><path fill-rule="evenodd" clip-rule="evenodd" d="M15.545 2.2c-3.907 0-7.233 3.466-7.233 7.751v.8h-1.71c-2.24 0-4.202 2.014-4.202 4.525 0 2.51 1.962 4.524 4.202 4.524H23.58c3.301 0 6.021-2.821 6.021-6.46 0-3.528-2.555-6.286-5.718-6.453.322.965.497 1.997.497 3.064h-1.6c0-4.285-3.326-7.75-7.234-7.75zm7.633 3.079C21.647 2.505 18.804.6 15.545.6c-4.625 0-8.412 3.836-8.8 8.551h-.143C3.386 9.151.8 11.977.8 15.276c0 3.298 2.586 6.124 5.802 6.124H23.58c4.278 0 7.621-3.633 7.621-8.06 0-4.428-3.343-8.061-7.621-8.061h-.401z"/></symbol><symbol viewBox="0 0 10 6" id="arrow" xmlns="http://www.w3.org/2000/svg"><path fill-rule="evenodd" clip-rule="evenodd" d="M.576 1.045l.849-.849 3.7 3.701 3.701-3.7.849.848-4.55 4.55-4.549-4.55z"/></symbol><symbol viewBox="0 0 329.269 329" id="close" xmlns="http://www.w3.org/2000/svg"><path d="M194.8 164.77L323.013 36.555c8.343-8.34 8.343-21.825 0-30.164-8.34-8.34-21.825-8.34-30.164 0L164.633 134.605 36.422 6.391c-8.344-8.34-21.824-8.34-30.164 0-8.344 8.34-8.344 21.824 0 30.164l128.21 128.215L6.259 292.984c-8.344 8.34-8.344 21.825 0 30.164a21.266 21.266 0 0015.082 6.25c5.46 0 10.922-2.09 15.082-6.25l128.21-128.214 128.216 128.214a21.273 21.273 0 0015.082 6.25c5.46 0 10.922-2.09 15.082-6.25 8.343-8.34 8.343-21.824 0-30.164zm0 0"/></symbol><symbol viewBox="0 0 28 28" id="pdf-icon1" xmlns="http://www.w3.org/2000/svg"><path d="M3.333 3.333L6 14 3.333 24.667 14 22l10.667 2.667L22 14l2.667-10.667L14 6 3.333 3.333zM.667.667L14 4 27.333.667 24 14l3.333 13.333L14 24 .667 27.333 4 14 .667.667z"/></symbol><symbol viewBox="0 0 24 28" id="pdf-icon10" xmlns="http://www.w3.org/2000/svg"><path d="M18.333.667L23.667 6v21.333H2.333V22.89H.556v-5.333h1.777V.666h16zm-1.777 1.777H4.11l.095 15.112h7.905v5.333H4.24l.02 2.963h17.629V7.778h-5.334V2.444zm2.666 18.667v1.778H13.89v-1.778h5.333zm0-3.555v1.777H13.89v-1.777h5.333zm0-3.556v1.778H6.778V14h12.444zm0-3.556v1.778H6.778v-1.777h12.444zm-.889-7.111V6h2.668l-2.668-2.667z"/></symbol><symbol viewBox="0 0 28 28" id="pdf-icon11" xmlns="http://www.w3.org/2000/svg"><path d="M16.667.667v7.11h10.666v19.556h-16v-7.11H.667V.666h16zm8.888 8.889h-8.888v10.666H13.11v5.334h12.444v-16zM19.17 14c1.468 0 2.466.99 2.466 2.498 0 1.322-1.174 2.732-2.384 4.067.412-.056.828-.088 1.245-.097H22V22h-5.25v-1.038l.778-.779c1.48-1.493 2.463-2.62 2.463-3.573 0-.767-.41-1.188-1.058-1.188-.54 0-.95.383-1.327.804l-.94-.978C17.408 14.421 18.1 14 19.17 14zM14.89 2.445H2.444v16H14.89v-16zM9.763 6.889v6.5h1.57v1.5H6v-1.5h1.822V8.766H6.251V7.62c.91-.164 1.491-.391 2.086-.731h1.426z"/></symbol><symbol viewBox="0 0 26 28" id="pdf-icon12" xmlns="http://www.w3.org/2000/svg"><path d="M6.778 5.111V.667h12.444V5.11h6.222v1.78H.556V5.111h6.222zm5.333 3.556h1.778v15.11H12.11V8.668zm-4.444 0h1.777l.89 15.11H8.555l-.89-15.11zm8.888 0h1.778l-.889 15.11h-1.777l.888-15.11zm-8-6.222V5.11h8.89V2.445h-8.89zM2.334 5.11h21.334L21.89 27.332H4.11L2.333 5.111zm1.777 1.78L5.89 25.556h14.22l1.78-18.667H4.11z"/></symbol><symbol viewBox="0 0 24 28" id="pdf-icon13" xmlns="http://www.w3.org/2000/svg"><path d="M10.535 23.077l-1.424-1.342 1.133-1.068L13.778 24l-3.534 3.333-1.133-1.067 1.735-1.637C5.023 24.156.444 19.28.444 13.333h1.512c0 5.005 3.742 9.134 8.58 9.744zm2.44-18.826l2.136 2.014-1.132 1.068L10.445 4l1.333-1.258v-.075h.08l2.12-2 1.133 1.067-1.2 1.133c5.238.998 9.2 5.602 9.2 11.133H21.6c0-5.02-3.765-9.16-8.626-9.75zM5.777 8.667h12.444v10.666H5.778V8.667zm1.778 8.889h8.889v-7.112h-8.89v7.112z"/></symbol><symbol viewBox="0 0 28 28" id="pdf-icon14" xmlns="http://www.w3.org/2000/svg"><path d="M16.667 7.778h10.666v19.555h-16v-7.11H.667V.666h16v7.11zm0 1.778v10.666H13.11v5.334h12.444v-16h-8.888zM2.444 2.445v16H14.89v-16H2.444zm1.778 5.333h8.89v1.778h-8.89V7.778zm0 3.555h8.89v1.778h-8.89v-1.778zm0 3.556h8.89v1.778h-8.89v-1.778z"/></symbol><symbol viewBox="0 0 28 28" id="pdf-icon15" xmlns="http://www.w3.org/2000/svg"><path d="M13.111 20.222v5.334h12.444v-16h-8.888v5.333h7.11v1.778h-7.11v1.777h7.11v1.778H13.112zm-1.778 0H.667V.667h16v7.11h10.666v19.556h-16v-7.11zm3.556-3.555V2.445H2.444v16H14.89v-1.778zm0 5.333h8.889v1.778h-8.89V22z"/></symbol><symbol viewBox="0 0 28 28" id="pdf-icon16" xmlns="http://www.w3.org/2000/svg"><path d="M14.889 7.778V2.445H2.444v16h8.89V7.778h3.555zm1.778 0h10.666v19.555h-16v-7.11H.667V.666h16v7.11zm1.777 9.778V14h1.778v3.556h3.556v1.777h-3.556v3.556h-1.777v-3.556h-3.556v-1.777h3.556zm-5.333-8v16h12.445v-16H13.11z"/></symbol><symbol viewBox="0 0 28 28" id="pdf-icon17" xmlns="http://www.w3.org/2000/svg"><path d="M13.045 13.488L8.285.667l1.094.55a3.552 3.552 0 011.737 1.932L14 10.917l2.884-7.768a3.55 3.55 0 011.738-1.931l1.093-.551-4.76 12.821 2.248 6.059a5.325 5.325 0 012.902-2.469c2.793-.996 5.883.42 6.901 3.165 1.019 2.743-.42 5.775-3.212 6.771-2.793.997-5.883-.42-6.902-3.163L14 16.059l-2.893 7.792c-1.018 2.744-4.108 4.16-6.9 3.164-2.794-.997-4.232-4.03-3.213-6.773 1.018-2.744 4.108-4.16 6.901-3.164a5.325 5.325 0 012.901 2.469l2.25-6.059zm-8.224 11.87c1.862.665 3.922-.28 4.6-2.109.68-1.828-.279-3.85-2.141-4.515-1.861-.664-3.922.28-4.6 2.11-.68 1.829.28 3.85 2.141 4.515zm18.358 0c1.862-.664 2.82-2.685 2.142-4.515-.68-1.829-2.74-2.774-4.601-2.109-1.862.665-2.82 2.686-2.142 4.516.679 1.828 2.74 2.773 4.6 2.108z"/></symbol><symbol viewBox="0 0 25 28" id="pdf-icon18" xmlns="http://www.w3.org/2000/svg"><path d="M19.889 9.556h1.778v17.777H.333V.667h16.89v1.778H2.11v23.11h17.78v-16zm-8 .889L21.667.666l2.666 2.666-9.777 9.778h-2.667v-2.667zm-5.594 9.517a.889.889 0 01-1.257-1.257l3.556-3.556a.889.889 0 011.49.413l.584 2.332 1.617-1.078a.89.89 0 011.121.111l1.325 1.325 1.205-.602a.889.889 0 01.795 1.59l-1.778.888a.89.89 0 01-1.026-.166L12.665 18.7l-2.06 1.373a.89.89 0 01-1.356-.524l-.509-2.032-2.444 2.445zM3.89 22h14.22v1.778H3.89V22z"/></symbol><symbol viewBox="0 0 27 27" id="pdf-icon19" xmlns="http://www.w3.org/2000/svg"><path d="M24.889 6.222c0-2.673-2.28-4.444-5.333-4.444-3.055 0-5.334 1.771-5.334 4.444V8.89h7.111v17.778H0V8.889h12.444V6.222C12.444 2.786 15.628 0 19.556 0c3.927 0 7.11 2.786 7.11 6.222v4.445H24.89V6.222zm-12.445 4.445H1.778v14.222h17.778V10.667h-7.112z"/></symbol><symbol viewBox="0 0 28 28" id="pdf-icon2" xmlns="http://www.w3.org/2000/svg"><path d="M23.778 6h-5.816l2.26 2.132-1.51 1.424L14 5.11 18.713.667l1.51 1.424-2.261 2.131h7.593v7.111h-1.777V6zM4.222 22h5.816l-2.26-2.131 1.51-1.424L14 22.889l-4.713 4.444-1.51-1.424 2.261-2.131H2.444v-7.111h1.778V22zM.667.667h10.666v14.222H.667V.667zm16 12.444h10.666v14.222H16.667V13.111zm-14.223 0h7.112V2.445H2.444V13.11zm16 12.445h7.111V14.889h-7.11v10.667z"/></symbol><symbol viewBox="0 0 27 27" id="pdf-icon20" xmlns="http://www.w3.org/2000/svg"><path d="M0 5.333L13.333 0l13.334 5.333c-.162 17.869-13.334 21.334-13.334 21.334S.158 22.7 0 5.333zm1.778.89c.135 14.885 11.555 18.666 11.555 18.666S24.75 21.538 24.89 6.222c0 0-11.556-4.444-11.556-4.317 0 .127-11.555 4.317-11.555 4.317z"/></symbol><symbol viewBox="0 0 28 28" id="pdf-icon3" xmlns="http://www.w3.org/2000/svg"><path d="M16.667 7.778h10.666v19.555h-16v-7.11H.667V.666h16v7.11zm0 1.778v10.666H13.11v5.334h12.444v-16h-8.888zm-4.557 1.777A3.562 3.562 0 009.556 8.78v2.554h2.554zm0 1.778H7.778V8.78a3.557 3.557 0 00.889 6.999 3.557 3.557 0 003.443-2.667zM2.444 2.445v16H14.89v-16H2.444zm6.223 15.11a5.333 5.333 0 110-10.666 5.333 5.333 0 010 10.667z"/></symbol><symbol viewBox="0 0 28 28" id="pdf-icon4" xmlns="http://www.w3.org/2000/svg"><path d="M16.667 14.714a5.333 5.333 0 11-2.593 5.508h-.963v5.334h12.445v-16h-8.89v5.158zm0 2.02v3.488h-.777a3.557 3.557 0 006.887 0h-4.332v-4.36c-.593.111-1.258.36-1.778.872zm3.555-.844v2.555h2.555a3.562 3.562 0 00-2.555-2.555zm-3.555-8.112h10.666v19.555h-16v-7.11H.667V.666h16v7.11zM2.444 2.445v16H14.89v-16H2.444z"/></symbol><symbol viewBox="0 0 28 28" id="pdf-icon5" xmlns="http://www.w3.org/2000/svg"><path d="M2.444 16.027v2.418H14.89v-4.072l-.947-.983-4.615 3.197-3.076-3.197-3.807 2.637zm0-1.921l4.002-2.773 3.078 3.197 4.615-3.197.75.78V2.445H2.444v11.66zm14.223-4.55v10.666H13.11v5.334h12.444v-16h-8.888zm0-1.778h10.666v19.555h-16v-7.11H.667V.666h16v7.11zm-4.445 1.778a1.778 1.778 0 110-3.556 1.778 1.778 0 010 3.556z"/></symbol><symbol viewBox="0 0 28 28" id="pdf-icon6" xmlns="http://www.w3.org/2000/svg"><path d="M14.547 20.222H13.11v.995l1.436-.995zm2.12-1.468l.446-.31 3.077 3.197 4.615-3.196.75.78v-9.67h-8.888v9.199zm0-10.976h10.666v19.555h-16v-7.11H.667V.666h16v7.11zm-3.556 15.36v2.418h12.444v-4.072l-.946-.983-4.615 3.197-3.077-3.197-3.806 2.637zm9.778-6.471a1.778 1.778 0 110-3.556 1.778 1.778 0 010 3.556zM2.444 2.445v16H14.89v-16H2.444z"/></symbol><symbol viewBox="0 0 28 28" id="pdf-icon7" xmlns="http://www.w3.org/2000/svg"><path d="M16.667 9.556v10.666H13.11v5.334h12.445v-16h-8.89zm0-1.778h10.666v19.555h-16v-7.11H.667V.666h16v7.11zM5.11 8.667v2.666h2.667V8.667H5.11zm-1.778 0V6.889H14v10.667H3.333v-8.89zm1.778 7.11h2.667v-2.666H5.11v2.667zm4.445-7.11v2.666h2.666V8.667H9.556zm0 4.444v2.667h2.666V13.11H9.556zM2.444 2.445v16H14.89v-16H2.444z"/></symbol><symbol viewBox="0 0 28 28" id="pdf-icon8" xmlns="http://www.w3.org/2000/svg"><path d="M23.778 6h-5.816l2.26 2.132-1.51 1.424L14 5.11 18.713.667l1.51 1.424-2.261 2.131h7.593v7.111h-1.777V6zM4.222 22h5.816l-2.26-2.131 1.51-1.424L14 22.889l-4.713 4.444-1.51-1.424 2.261-2.131H2.444v-7.111h1.778V22zM.667.667h10.666v14.222H.667V.667zm16 12.444h10.666v14.222H16.667V13.111zm-14.223 0h7.112V2.445H2.444V13.11zm16 12.445h7.111V14.889h-7.11v10.667z"/></symbol><symbol viewBox="0 0 28 28" id="pdf-icon9" xmlns="http://www.w3.org/2000/svg"><path d="M16.667 7.778h10.666v19.555h-16v-7.11H.667V.666h16v7.11zm0 1.778v10.666H13.11v5.334h12.444v-16h-8.888zm-4.557 1.777A3.562 3.562 0 009.556 8.78v2.554h2.554zm0 1.778H7.778V8.78a3.557 3.557 0 00.889 6.999 3.557 3.557 0 003.443-2.667zM2.444 2.445v16H14.89v-16H2.444zm6.223 15.11a5.333 5.333 0 110-10.666 5.333 5.333 0 010 10.667z"/></symbol></svg>